<svg width="592" height="388" viewBox="0 0 592 388" fill="none" xmlns="http://www.w3.org/2000/svg">
<path d="M128.422 151.469V241H102.055V151.469H90.8047V126.859H102.055V85.0234H128.422V126.859H148.93V151.469H128.422ZM166.859 126.859H193.227V137.055C198.07 131.977 202.367 128.5 206.117 126.625C209.945 124.672 214.477 123.695 219.711 123.695C226.664 123.695 233.93 125.961 241.508 130.492L229.438 154.633C224.438 151.039 219.555 149.242 214.789 149.242C200.414 149.242 193.227 160.102 193.227 181.82V241H166.859V126.859ZM286.742 126.859V192.367C286.742 211.273 294.203 220.727 309.125 220.727C324.047 220.727 331.508 211.273 331.508 192.367V126.859H357.875V192.953C357.875 202.094 356.742 209.984 354.477 216.625C352.289 222.562 348.5 227.914 343.109 232.68C334.203 240.414 322.875 244.281 309.125 244.281C295.453 244.281 284.164 240.414 275.258 232.68C269.789 227.914 265.922 222.562 263.656 216.625C261.469 211.312 260.375 203.422 260.375 192.953V126.859H286.742ZM495.102 190.141H413.305C414.008 199.516 417.055 206.977 422.445 212.523C427.836 217.992 434.75 220.727 443.188 220.727C449.75 220.727 455.18 219.164 459.477 216.039C463.695 212.914 468.5 207.133 473.891 198.695L496.156 211.117C492.719 216.977 489.086 222.016 485.258 226.234C481.43 230.375 477.328 233.812 472.953 236.547C468.578 239.203 463.852 241.156 458.773 242.406C453.695 243.656 448.188 244.281 442.25 244.281C425.219 244.281 411.547 238.812 401.234 227.875C390.922 216.859 385.766 202.25 385.766 184.047C385.766 166 390.766 151.391 400.766 140.219C410.844 129.203 424.203 123.695 440.844 123.695C457.641 123.695 470.922 129.047 480.688 139.75C490.375 150.375 495.219 165.102 495.219 183.93L495.102 190.141ZM468.031 168.578C464.359 154.516 455.492 147.484 441.43 147.484C438.227 147.484 435.219 147.992 432.406 149.008C429.594 149.945 427.016 151.352 424.672 153.227C422.406 155.023 420.453 157.211 418.812 159.789C417.172 162.367 415.922 165.297 415.062 168.578H468.031Z" fill="white"/>
<path d="M100.365 284.174H114.647V289.887C117.398 287.009 119.747 285.062 121.693 284.047C123.767 282.989 126.369 282.46 129.501 282.46C136.483 282.46 142.006 285.507 146.068 291.601C150.554 285.507 156.627 282.46 164.286 282.46C178.209 282.46 185.17 290.902 185.17 307.787V346H170.824V311.659C170.824 305.735 170.105 301.545 168.666 299.091C167.185 296.594 164.752 295.346 161.366 295.346C157.431 295.346 154.553 296.827 152.733 299.789C150.956 302.751 150.067 307.512 150.067 314.071V346H135.722V311.85C135.722 300.847 132.548 295.346 126.2 295.346C122.18 295.346 119.239 296.848 117.377 299.853C115.557 302.857 114.647 307.597 114.647 314.071V346H100.365V284.174ZM259.501 318.451H215.194C215.575 323.529 217.226 327.571 220.146 330.575C223.065 333.537 226.811 335.019 231.381 335.019C234.936 335.019 237.877 334.172 240.204 332.479C242.489 330.787 245.092 327.655 248.012 323.085L260.072 329.813C258.21 332.987 256.243 335.717 254.169 338.002C252.095 340.245 249.874 342.107 247.504 343.588C245.134 345.027 242.574 346.085 239.823 346.762C237.073 347.439 234.089 347.777 230.873 347.777C221.648 347.777 214.242 344.815 208.656 338.891C203.07 332.924 200.277 325.01 200.277 315.15C200.277 305.375 202.986 297.462 208.402 291.41C213.861 285.443 221.098 282.46 230.111 282.46C239.21 282.46 246.404 285.359 251.693 291.156C256.941 296.911 259.564 304.888 259.564 315.087L259.501 318.451ZM244.838 306.771C242.849 299.154 238.046 295.346 230.429 295.346C228.694 295.346 227.064 295.621 225.541 296.171C224.018 296.679 222.621 297.44 221.352 298.456C220.124 299.429 219.066 300.614 218.178 302.011C217.289 303.407 216.612 304.994 216.146 306.771H244.838ZM291.049 297.504V346H276.767V297.504H270.673V284.174H276.767V261.513H291.049V284.174H302.157V297.504H291.049ZM311.869 284.174H326.151V289.696C328.775 286.946 331.103 285.062 333.134 284.047C335.207 282.989 337.662 282.46 340.497 282.46C344.263 282.46 348.199 283.687 352.304 286.142L345.766 299.218C343.057 297.271 340.412 296.298 337.831 296.298C330.045 296.298 326.151 302.18 326.151 313.944V346H311.869V284.174ZM376.806 284.174V346H362.523V284.174H376.806ZM360.365 258.466C360.365 255.969 361.275 253.811 363.095 251.991C364.914 250.172 367.094 249.262 369.633 249.262C372.214 249.262 374.415 250.172 376.234 251.991C378.054 253.769 378.964 255.948 378.964 258.529C378.964 261.111 378.054 263.311 376.234 265.131C374.457 266.951 372.278 267.86 369.696 267.86C367.115 267.86 364.914 266.951 363.095 265.131C361.275 263.311 360.365 261.09 360.365 258.466ZM443.012 286.84V305.819C439.753 301.841 436.833 299.112 434.252 297.631C431.713 296.107 428.729 295.346 425.302 295.346C419.927 295.346 415.463 297.229 411.908 300.995C408.354 304.761 406.576 309.48 406.576 315.15C406.576 320.948 408.29 325.709 411.718 329.433C415.188 333.157 419.61 335.019 424.984 335.019C428.412 335.019 431.438 334.278 434.062 332.797C436.601 331.358 439.584 328.565 443.012 324.418V343.271C437.214 346.275 431.417 347.777 425.619 347.777C416.055 347.777 408.057 344.688 401.625 338.51C395.193 332.289 391.977 324.566 391.977 315.341C391.977 306.116 395.235 298.329 401.752 291.981C408.269 285.634 416.267 282.46 425.746 282.46C431.84 282.46 437.595 283.92 443.012 286.84ZM492.777 294.711L480.971 300.995C479.109 297.187 476.802 295.282 474.052 295.282C472.74 295.282 471.618 295.727 470.688 296.615C469.757 297.462 469.291 298.562 469.291 299.916C469.291 302.286 472.042 304.634 477.543 306.962C485.118 310.22 490.217 313.225 492.841 315.976C495.465 318.726 496.776 322.429 496.776 327.084C496.776 333.051 494.576 338.044 490.175 342.064C485.901 345.873 480.738 347.777 474.687 347.777C464.319 347.777 456.977 342.72 452.66 332.606L464.848 326.957C466.54 329.919 467.831 331.802 468.72 332.606C470.455 334.215 472.528 335.019 474.94 335.019C479.765 335.019 482.177 332.818 482.177 328.417C482.177 325.878 480.315 323.508 476.591 321.308C475.152 320.588 473.713 319.89 472.274 319.213C470.836 318.536 469.376 317.838 467.895 317.118C463.747 315.087 460.827 313.056 459.135 311.024C456.977 308.443 455.897 305.121 455.897 301.059C455.897 295.684 457.738 291.241 461.42 287.729C465.186 284.216 469.757 282.46 475.131 282.46C483.044 282.46 488.926 286.544 492.777 294.711Z" fill="white"/>
</svg>
